<svg version="1.1" viewBox="0.0 0.0 720.0 540.0" fill="none" stroke="none" stroke-linecap="square" stroke-miterlimit="10" xmlns:xlink="http://www.w3.org/1999/xlink" xmlns="http://www.w3.org/2000/svg"><clipPath id="p.0"><path d="m0 0l720.0 0l0 540.0l-720.0 0l0 -540.0z" clip-rule="nonzero"/></clipPath><g clip-path="url(#p.0)"><path fill="#000000" fill-opacity="0.0" d="m0 0l720.0 0l0 540.0l-720.0 0z" fill-rule="evenodd"/><path fill="#cc0000" d="m16.062992 100.16798l42.992126 0l0 37.98426l-42.992126 0z" fill-rule="evenodd"/><path stroke="#000000" stroke-width="1.0" stroke-linejoin="round" stroke-linecap="butt" d="m16.062992 100.16798l42.992126 0l0 37.98426l-42.992126 0z" fill-rule="evenodd"/><path fill="#f1c232" d="m59.05512 100.16798l42.992123 0l0 37.98426l-42.992123 0z" fill-rule="evenodd"/><path stroke="#000000" stroke-width="1.0" stroke-linejoin="round" stroke-linecap="butt" d="m59.05512 100.16798l42.992123 0l0 37.98426l-42.992123 0z" fill-rule="evenodd"/><path fill="#3d85c6" d="m145.03937 100.16798l42.992126 0l0 37.98426l-42.992126 0z" fill-rule="evenodd"/><path stroke="#000000" stroke-width="1.0" stroke-linejoin="round" stroke-linecap="butt" d="m145.03937 100.16798l42.992126 0l0 37.98426l-42.992126 0z" fill-rule="evenodd"/><path fill="#6aa84f" d="m102.04724 100.16798l42.992126 0l0 37.98426l-42.992126 0z" fill-rule="evenodd"/><path stroke="#000000" stroke-width="1.0" stroke-linejoin="round" stroke-linecap="butt" d="m102.04724 100.16798l42.992126 0l0 37.98426l-42.992126 0z" fill-rule="evenodd"/><path fill="#cc0000" d="m188.0315 100.16798l42.992126 0l0 37.98426l-42.992126 0z" fill-rule="evenodd"/><path stroke="#000000" stroke-width="1.0" stroke-linejoin="round" stroke-linecap="butt" d="m188.0315 100.16798l42.992126 0l0 37.98426l-42.992126 0z" fill-rule="evenodd"/><path fill="#f1c232" d="m231.02362 100.16798l42.992126 0l0 37.98426l-42.992126 0z" fill-rule="evenodd"/><path stroke="#000000" stroke-width="1.0" stroke-linejoin="round" stroke-linecap="butt" d="m231.02362 100.16798l42.992126 0l0 37.98426l-42.992126 0z" fill-rule="evenodd"/><path fill="#3d85c6" d="m317.00787 100.16798l42.992126 0l0 37.98426l-42.992126 0z" fill-rule="evenodd"/><path stroke="#000000" stroke-width="1.0" stroke-linejoin="round" stroke-linecap="butt" d="m317.00787 100.16798l42.992126 0l0 37.98426l-42.992126 0z" fill-rule="evenodd"/><path fill="#6aa84f" d="m274.01575 100.16798l42.992126 0l0 37.98426l-42.992126 0z" fill-rule="evenodd"/><path stroke="#000000" stroke-width="1.0" stroke-linejoin="round" stroke-linecap="butt" d="m274.01575 100.16798l42.992126 0l0 37.98426l-42.992126 0z" fill-rule="evenodd"/><path fill="#cc0000" d="m360.0 100.16798l42.992126 0l0 37.98426l-42.992126 0z" fill-rule="evenodd"/><path stroke="#000000" stroke-width="1.0" stroke-linejoin="round" stroke-linecap="butt" d="m360.0 100.16798l42.992126 0l0 37.98426l-42.992126 0z" fill-rule="evenodd"/><path fill="#f1c232" d="m402.99213 100.16798l42.992126 0l0 37.98426l-42.992126 0z" fill-rule="evenodd"/><path stroke="#000000" stroke-width="1.0" stroke-linejoin="round" stroke-linecap="butt" d="m402.99213 100.16798l42.992126 0l0 37.98426l-42.992126 0z" fill-rule="evenodd"/><path fill="#3d85c6" d="m488.97638 100.16798l42.992126 0l0 37.98426l-42.992126 0z" fill-rule="evenodd"/><path stroke="#000000" stroke-width="1.0" stroke-linejoin="round" stroke-linecap="butt" d="m488.97638 100.16798l42.992126 0l0 37.98426l-42.992126 0z" fill-rule="evenodd"/><path fill="#6aa84f" d="m445.98425 100.16798l42.992126 0l0 37.98426l-42.992126 0z" fill-rule="evenodd"/><path stroke="#000000" stroke-width="1.0" stroke-linejoin="round" stroke-linecap="butt" d="m445.98425 100.16798l42.992126 0l0 37.98426l-42.992126 0z" fill-rule="evenodd"/><path fill="#cc0000" d="m531.9685 100.16798l42.992126 0l0 37.98426l-42.992126 0z" fill-rule="evenodd"/><path stroke="#000000" stroke-width="1.0" stroke-linejoin="round" stroke-linecap="butt" d="m531.9685 100.16798l42.992126 0l0 37.98426l-42.992126 0z" fill-rule="evenodd"/><path fill="#f1c232" d="m574.96063 100.16798l42.992126 0l0 37.98426l-42.992126 0z" fill-rule="evenodd"/><path stroke="#000000" stroke-width="1.0" stroke-linejoin="round" stroke-linecap="butt" d="m574.96063 100.16798l42.992126 0l0 37.98426l-42.992126 0z" fill-rule="evenodd"/><path fill="#3d85c6" d="m660.9449 100.16798l42.992126 0l0 37.98426l-42.992126 0z" fill-rule="evenodd"/><path stroke="#000000" stroke-width="1.0" stroke-linejoin="round" stroke-linecap="butt" d="m660.9449 100.16798l42.992126 0l0 37.98426l-42.992126 0z" fill-rule="evenodd"/><path fill="#6aa84f" d="m617.95276 100.16798l42.992126 0l0 37.98426l-42.992126 0z" fill-rule="evenodd"/><path stroke="#000000" stroke-width="1.0" stroke-linejoin="round" stroke-linecap="butt" d="m617.95276 100.16798l42.992126 0l0 37.98426l-42.992126 0z" fill-rule="evenodd"/></g></svg>